<?xml version="1.0" standalone="no"?>
<!DOCTYPE svg PUBLIC "-//W3C//DTD SVG 20010904//EN"
 "http://www.w3.org/TR/2001/REC-SVG-20010904/DTD/svg10.dtd">
<svg version="1.0" xmlns="http://www.w3.org/2000/svg"
 width="750.000000pt" height="750.000000pt" viewBox="0 0 750.000000 750.000000"
 preserveAspectRatio="xMidYMid meet">
<metadata>
Created by potrace 1.14, written by Peter Selinger 2001-2017
</metadata>
<g transform="translate(0.000000,750.000000) scale(0.100000,-0.100000)"
fill="#000000" stroke="none">
<path d="M0 3750 l0 -3750 3750 0 3750 0 0 3750 0 3750 -3750 0 -3750 0 0
-3750z m3390 502 c0 -790 -4 -1277 -10 -1329 -71 -568 -504 -923 -1126 -923
-506 0 -915 318 -1128 878 -53 138 -53 139 -9 151 102 27 447 111 457 111 7 0
18 -21 26 -47 23 -81 116 -254 174 -327 103 -128 225 -210 355 -237 72 -15
266 -6 346 16 155 41 279 134 335 249 61 124 60 96 60 1462 l0 1244 260 0 260
0 0 -1248z m3030 988 l0 -260 -475 0 -475 0 -2 -1442 -3 -1443 -257 -3 -258
-2 0 1445 0 1445 -477 2 -478 3 -3 258 -2 257 1215 0 1215 0 0 -260z"/>
</g>
</svg>
